<svg width="962" height="275" viewBox="0 0 962 275" fill="none" xmlns="http://www.w3.org/2000/svg"><path d="M353.488 61.8601C353.488 25.5226 381.363 0.0078125 419.377 0.0078125C442.517 0.0078125 460.764 8.45385 472.414 23.6585L447.242 46.1253C440.318 37.3436 432.042 32.2724 421.399 32.2724C404.848 32.2724 393.693 43.7576 393.693 61.8512C393.693 79.9449 404.839 91.4212 421.399 91.4212C432.042 91.4212 440.318 86.3412 447.242 77.5683L472.414 100.035C460.764 115.24 442.517 123.686 419.377 123.686C381.363 123.686 353.488 98.1798 353.488 61.8512V61.8601Z" fill="white"></path><path d="M554.244 78.0804V121H514.375V77.5768L469.781 2.71094H511.849L536.005 43.6071L560.329 2.71094H598.855L554.253 78.0892L554.244 78.0804Z" fill="white"></path><path d="M720.547 88.3916C720.547 109.003 703.147 121.001 670.548 121.001H603.988V2.70312H667.165C699.774 2.70312 714.983 15.7167 714.983 33.6337C714.983 44.6153 709.401 53.7328 698.59 59.1397C712.439 64.2197 720.547 74.3443 720.547 88.3828V88.3916ZM643.177 30.5945V48.1669H661.751C670.707 48.1669 674.761 45.1277 674.761 39.3763C674.761 33.6248 670.707 30.5945 661.751 30.5945H643.177ZM680.334 83.8152C680.334 77.7369 675.944 74.5298 667.156 74.5298H643.177V93.1182H667.156C675.944 93.1182 680.334 89.9023 680.334 83.8152Z" fill="white"></path><path d="M832.953 90.9183V121.001H734.633V2.70312H830.754V32.7855H773.83V46.6385H823.829V75.3691H773.83V90.9183H832.953Z" fill="white"></path><path d="M899.082 91.2452H888.271V120.992H848.402V2.70312H905.335C938.27 2.70312 959.22 19.9398 959.22 47.3099C959.22 64.3875 951.112 77.2244 936.919 84.4866L961.755 120.992H919.184L899.082 91.2452ZM902.791 33.457H888.262V61.1717H902.791C913.778 61.1717 919.007 55.9415 919.007 47.3187C919.007 38.696 913.77 33.4658 902.791 33.4658V33.457Z" fill="white"></path><path d="M385.717 186.784V214.825H434.806V234.527H385.717V273.179H361.172V167.082H441.324V186.784H385.717Z" fill="#6172F3"></path><path d="M457.127 226.488V167.074H481.672V225.578C481.672 245.739 490.46 254.07 505.307 254.07C520.154 254.07 528.942 245.73 528.942 225.578V167.074H553.186V226.488C553.186 257.71 535.31 274.991 505.148 274.991C474.986 274.991 457.109 257.71 457.109 226.488H457.127Z" fill="#6172F3"></path><path d="M569.16 262.717L577.498 244.226C586.436 250.746 599.764 255.287 612.5 255.287C627.046 255.287 632.955 250.446 632.955 243.926C632.955 224.074 571.28 237.706 571.28 198.303C571.28 180.262 585.826 165.27 615.988 165.27C629.316 165.27 642.953 168.45 652.801 174.67L645.232 193.311C635.384 187.701 625.227 184.971 615.83 184.971C601.292 184.971 595.674 190.422 595.674 197.092C595.674 216.644 657.35 203.162 657.35 242.114C657.35 259.855 642.653 274.997 612.35 274.997C595.524 274.997 578.558 270.006 569.16 262.726V262.717Z" fill="#6172F3"></path><path d="M674.223 167.074H698.767V273.171H674.223V167.074Z" fill="#6172F3"></path><path d="M717.277 220.134C717.277 188.594 741.822 165.262 775.314 165.262C808.806 165.262 833.35 188.444 833.35 220.134C833.35 251.825 808.655 274.99 775.314 274.99C741.972 274.99 717.277 251.657 717.277 220.134ZM808.496 220.134C808.496 199.965 794.25 186.174 775.314 186.174C756.378 186.174 742.131 199.965 742.131 220.134C742.131 240.304 756.378 254.078 775.314 254.078C794.25 254.078 808.496 240.287 808.496 220.134Z" fill="#6172F3"></path><path d="M949.176 167.074V273.171H929.021L876.143 208.748V273.171H851.898V167.074H872.204L924.932 231.497V167.074H949.176Z" fill="#6172F3"></path><path d="M242.997 206.125C242.997 206.125 290.471 143.902 210.804 92.5895L161.838 58.4254C156.928 54.9975 159.348 47.2848 165.336 47.2848H250.637C268.417 47.2848 282.831 32.8664 282.831 15.082H158.685C136.534 15.082 118.578 33.0431 118.578 55.2007C118.578 71.2359 126.748 86.1931 140.305 94.7629C149.138 100.346 161.494 106.76 178.743 113.599C233.176 135.173 250.09 175.566 242.997 206.134V206.125Z" fill="#6172F3"></path><path d="M232.212 209.806H160.114C142.335 209.806 127.921 195.388 127.921 177.604V126.291C127.921 115.901 132.841 106.678 140.472 100.785C139.12 99.99 137.831 99.2037 136.621 98.4351C123.982 90.4485 116.024 76.8959 115.008 62.0977C98.969 63.9353 86.5156 77.5497 86.5156 94.0795V209.797C86.5156 227.582 100.93 242 118.709 242H264.405C264.405 224.216 249.991 209.797 232.212 209.797V209.806Z" fill="white"></path><path d="M169.196 58.424L215.035 90.4059H243.263C261.042 90.4059 275.456 75.9875 275.456 58.2031H168.922C169.019 58.2738 169.09 58.3533 169.196 58.424Z" fill="white"></path><path d="M132.471 274.991C82.7278 254.627 40.8013 213.766 22.077 163.002C18.5794 153.858 15.9651 143.309 13.6599 133.776C10.5863 121.001 7.85711 107.281 5.76387 94.3289C1.95719 71.1994 -0.153708 47.3986 0.3144 23.9599C0.526373 15.9998 1.05631 7.87178 2.49596 0C25.2477 0.18553 50.1192 0.49475 72.9858 0.909984C109.631 1.56376 148.086 2.50908 184.678 4.14351C163.233 5.1065 139.263 5.86629 117.668 6.43172C80.9613 7.3682 42.6384 7.93363 5.97585 8.24285L10.021 4.82379C8.51953 17.6696 8.58135 30.904 9.17311 43.8293C10.1623 63.4337 12.5823 83.3649 15.9827 102.731C17.5814 112.034 19.7364 122.671 21.8473 131.886C33.55 195.098 75.9446 245.66 132.48 274.982L132.471 274.991Z" fill="#6172F3"></path></svg>